<?xml version="1.0" encoding="UTF-8" standalone="no"?>
<svg
   xmlns:dc="http://purl.org/dc/elements/1.1/"
   xmlns:cc="http://creativecommons.org/ns#"
   xmlns:rdf="http://www.w3.org/1999/02/22-rdf-syntax-ns#"
   xmlns:svg="http://www.w3.org/2000/svg"
   xmlns="http://www.w3.org/2000/svg"
   xmlns:sodipodi="http://sodipodi.sourceforge.net/DTD/sodipodi-0.dtd"
   xmlns:inkscape="http://www.inkscape.org/namespaces/inkscape"
   version="1.0"
   width="175pt"
   height="64pt"
   viewBox="0 0 175 64"
   preserveAspectRatio="xMidYMid meet"
   id="svg3388"
   inkscape:version="0.91 r13725"
   sodipodi:docname="3.svg">
  <metadata
     id="metadata3400">
    <rdf:RDF>
      <cc:Work
         rdf:about="">
        <dc:format>image/svg+xml</dc:format>
        <dc:type
           rdf:resource="http://purl.org/dc/dcmitype/StillImage" />
        <dc:title></dc:title>
      </cc:Work>
    </rdf:RDF>
  </metadata>
  <defs
     id="defs3398" />
  <sodipodi:namedview
     pagecolor="#ffffff"
     bordercolor="#666666"
     borderopacity="1"
     objecttolerance="10"
     gridtolerance="10"
     guidetolerance="10"
     inkscape:pageopacity="0"
     inkscape:pageshadow="2"
     inkscape:window-width="1301"
     inkscape:window-height="744"
     id="namedview3396"
     showgrid="false"
     inkscape:snap-grids="true"
     inkscape:zoom="2.3"
     inkscape:cx="93.795576"
     inkscape:cy="62.34748"
     inkscape:window-x="65"
     inkscape:window-y="24"
     inkscape:window-maximized="1"
     inkscape:current-layer="svg3388" />
  <path
     style="fill:#000000;stroke:none"
     inkscape:connector-curvature="0"
     id="path3394"
     d="m 20.891525,26.7 c 0,16.4 1.8,17.3 2.2,1.1 l 0.3,-10.6 10.2,7.1 c 5.7,4 10.3,7.4 10.3,7.7 0,0.3 -5.2,4.1 -11.5,8.5 -6.3,4.4 -11.5,8.6 -11.5,9.2 0,0.7 0.2,1.3 0.6,1.3 0.9,0 26.4,-18.3 26.4,-19 0,-0.7 -25.5,-19 -26.4,-19 -0.4,0 -0.6,6.2 -0.6,13.7 z" />
  <g
     id="g3441">
    <path
       sodipodi:nodetypes="csccscccccccc"
       inkscape:connector-curvature="0"
       id="path3392"
       d="m 26.391525,0.6 c -4.6,1.1 -10.5,3.6 -10.5,4.5 0,1.2 1.1,1.1 6,-0.6 10.6,-3.7 22.6,-1 30.6,6.9 11.5,11.5 11.5,29.7 0,41.2 -11.5,11.5 -29.7,11.5 -41.2,0 C 0.89152543,42.1 -0.10847457,25.1 8.8915254,13.8 10.891525,11.3 11.491525,9.9 10.791525,9.4 9.2915254,8.5 6.4915254,12.1 3.0915254,19 c -5.5,11.3 -2.79999997,26.3 6.3,35.5 12.1999996,12.1 32.7999996,12.1 44.9999996,0 12.1,-12.2 12.1,-32.8 0,-45 -6.7,-6.6 -20,-10.9 -28,-8.9"
       style="fill:#000000;stroke:none" />
    <path
       sodipodi:nodetypes="cc"
       inkscape:connector-curvature="0"
       inkscape:connector-type="polyline"
       id="path3444"
       d="m 29.6,1.36 110.4,0"
       style="fill:none;fill-rule:evenodd;stroke:#000000;stroke-width:1.91999996;stroke-linecap:butt;stroke-linejoin:miter;stroke-miterlimit:4;stroke-dasharray:none;stroke-opacity:1;image-rendering:optimizeSpeed" />
    <path
       sodipodi:nodetypes="cc"
       inkscape:connector-curvature="0"
       inkscape:connector-type="polyline"
       id="path3446"
       d="m 30.4,62.72 111.2,0"
       style="fill:none;fill-rule:evenodd;stroke:#000000;stroke-width:1.91999996;stroke-linecap:butt;stroke-linejoin:miter;stroke-miterlimit:5;stroke-dasharray:none;stroke-opacity:1" />
    <path
       sodipodi:nodetypes="csc"
       inkscape:connector-curvature="0"
       id="path3448"
       d="M 140.8,62.72 C 166.45318,63.011809 174.98858,39.230859 173.34857,28.064577 168.97647,-1.7034804 139.2,1.36 139.2,1.36"
       style="fill:none;fill-rule:evenodd;stroke:#000000;stroke-width:1.91999996;stroke-linecap:butt;stroke-linejoin:miter;stroke-miterlimit:4;stroke-dasharray:none;stroke-opacity:1" />
  </g>
  <path
     style="fill:#008000;stroke-width:2.4000001;stroke-miterlimit:5;stroke-dasharray:none"
     d=""
     id="path3345"
     inkscape:connector-curvature="0"
     transform="scale(0.8,0.8)" />
  <path
     style="fill:#008000;stroke-width:2.4000001;stroke-miterlimit:5;stroke-dasharray:none"
     d=""
     id="path3347"
     inkscape:connector-curvature="0"
     transform="scale(0.8,0.8)" />
  <path
     style="fill:#008000;stroke-width:2.4000001;stroke-miterlimit:5;stroke-dasharray:none"
     d=""
     id="path3349"
     inkscape:connector-curvature="0"
     transform="scale(0.8,0.8)" />
</svg>
