<?xml version="1.0" standalone="no"?>
<!DOCTYPE svg PUBLIC "-//W3C//DTD SVG 20010904//EN"
 "http://www.w3.org/TR/2001/REC-SVG-20010904/DTD/svg10.dtd">
<svg version="1.0" xmlns="http://www.w3.org/2000/svg"
 width="64.000000pt" height="64.000000pt" viewBox="0 0 64.000000 64.000000"
 preserveAspectRatio="xMidYMid meet">
<metadata>
Created by potrace 1.10, written by Peter Selinger 2001-2011
</metadata>
<g transform="translate(0.000000,64.000000) scale(0.100000,-0.100000)"
fill="#000000" stroke="none">
<path d="M265 629 c-60 -8 -105 -25 -105 -39 0 -14 22 -13 63 5 48 20 142 19
203 -2 66 -22 145 -101 167 -167 39 -114 14 -231 -67 -312 -115 -115 -297
-115 -412 0 -104 105 -114 275 -24 388 34 41 36 48 16 48 -7 0 -25 -17 -39
-37 -45 -65 -59 -111 -59 -194 0 -132 63 -233 179 -286 75 -35 191 -35 266 0
68 31 123 86 154 154 35 75 35 191 0 266 -60 131 -189 197 -342 176z"/>
<path d="M250 320 c0 -102 3 -151 11 -148 6 2 10 55 10 148 0 93 -4 146 -10
148 -8 3 -11 -46 -11 -148z"/>
<path d="M370 465 c-5 -86 1 -290 9 -293 8 -3 11 45 11 147 0 94 -4 151 -10
151 -5 0 -10 -2 -10 -5z"/>
</g>
</svg>
