<?xml version="1.0" standalone="no"?>
<!DOCTYPE svg PUBLIC "-//W3C//DTD SVG 20010904//EN"
 "http://www.w3.org/TR/2001/REC-SVG-20010904/DTD/svg10.dtd">
<svg version="1.0" xmlns="http://www.w3.org/2000/svg"
 width="64.000000pt" height="64.000000pt" viewBox="0 0 64.000000 64.000000"
 preserveAspectRatio="xMidYMid meet">
<g transform="translate(0.000000,64.000000) scale(0.100000,-0.100000)"
fill="#000000" stroke="none">
<path d="M265 634 c-46 -11 -105 -36 -105 -45 0 -12 11 -11 60 6 106 37 226
10 306 -69 115 -115 115 -297 0 -412 -115 -115 -297 -115 -412 0 -104 105
-114 275 -24 388 20 25 26 39 19 44 -15 9 -43 -27 -77 -96 -55 -113 -28 -263
63 -355 122 -121 328 -121 450 0 121 122 121 328 0 450 -67 66 -200 109 -280
89z"/>
<path d="M210 373 c0 -164 18 -173 22 -11 l3 106 102 -71 c57 -40 103 -74 103
-77 0 -3 -52 -41 -115 -85 -63 -44 -115 -86 -115 -92 0 -7 2 -13 6 -13 9 0
264 183 264 190 0 7 -255 190 -264 190 -4 0 -6 -62 -6 -137z"/>
</g>
</svg>
